/* XPM */
static char * height_map_xpm[] = {
"20 20 10 1",
" 	c #000000",
".	c #010000",
"+	c #020000",
"@	c #030000",
"#	c #040000",
"$	c #060000",
"%	c #070000",
"&	c #080000",
"*	c #090000",
"=	c #0A0000",
"                    ",
" .................. ",
" .++++++++++++++++. ",
" .+@@@@@@@@@@@@@@+. ",
" .+@############@+. ",
" .+@#$$$$$$$$$$#@+. ",
" .+@#$%%%%%%%%$#@+. ",
" .+@#$%&&&&&&%$#@+. ",
" .+@#$%&****&%$#@+. ",
" .+@#$%&*==*&%$#@+. ",
" .+@#$%&*==*&%$#@+. ",
" .+@#$%&****&%$#@+. ",
" .+@#$%&&&&&&%$#@+. ",
" .+@#$%%%%%%%%$#@+. ",
" .+@#$$$$$$$$$$#@+. ",
" .+@############@+. ",
" .+@@@@@@@@@@@@@@+. ",
" .++++++++++++++++. ",
" .................. ",
"                    "};
